<svg height="511pt" viewBox="0 -65 511.99944 511" width="511pt" xmlns="http://www.w3.org/2000/svg"><g fill="#fff"><path d="m500.78125 174.121094c-.695312 4.179687-1.6875 8.503906-3.027344 12.984375-2.476562 8.304687-9.5625 14.414062-18.136718 15.679687l-98.179688 14.464844c7.847656 13.796875 11.972656 29.394531 11.972656 45.265625v11.667969l100.921875-14.015625 6.457031-86.050781zm0 0"/><path d="m347.402344 279.949219c0-18.675781-9.890625-35.957031-25.992188-45.414063-7.433594-4.363281-16.136718-6.058594-24.660156-4.800781l-272.3125 40.128906c-5.269531.777344-9.410156-1.425781-11.882812-4.820312l29.503906 57.941406 305.34375-42.410156zm0 0"/><path d="m475.644531 322.53125-391.457031 47.9375c-3.023438.367188-6.019531.152344-8.859375-.5625 2.839844.714844 5.835937.929688 8.859375.5625l391.457031-47.9375c5.648438-.691406 10.425781-4.058594 13.058594-8.78125-2.632813 4.722656-7.410156 8.089844-13.058594 8.78125zm0 0"/><path d="m10.242188 260.496094.4375.863281c-.09375-.296875-.179688-.59375-.253907-.894531zm0 0"/></g><path d="m393.410156 282.199219c0 12.980469-10.757812 23.453125-23.84375 22.984375-12.464844-.441406-22.164062-11.0625-22.164062-23.539063v-1.070312l-305.34375 42.410156 17.507812 34.382813c3.253906 6.390624 9.074219 10.863281 15.761719 12.539062 2.839844.714844 5.835937.929688 8.863281.5625l391.453125-47.933594c5.648438-.695312 10.425781-4.0625 13.058594-8.785156.238281-.429688.460937-.867188.664063-1.320312.8125-1.800782 1.324218-3.765626 1.480468-5.832032l3.484375-46.429687-100.921875 14.015625zm0 0" fill="#e4866f"/><path d="m24.4375 269.863281 272.308594-40.128906c8.527344-1.257813 17.230468.4375 24.660156 4.800781 16.105469 9.457032 25.996094 26.738282 25.996094 45.414063v1.699219c0 12.472656 9.699218 23.09375 22.164062 23.539062 13.085938.464844 23.84375-10.007812 23.84375-22.988281v-19.683594c0-15.871094-4.125-31.46875-11.972656-45.261719l98.179688-14.46875c8.574218-1.261718 15.660156-7.375 18.136718-15.679687 1.339844-4.476563 2.332032-8.800781 3.027344-12.984375 9.703125-58.464844-40.683594-88.433594-74.796875-101.800782-17.007813-6.664062-36.015625-5.917968-52.46875 2.011719l-40.351563 19.453125c.238282 1.347656.429688 2.710938.550782 4.101563 2.226562 25.640625-16.757813 48.234375-42.398438 50.457031-15.308594 1.332031-29.527344-4.90625-38.976562-15.597656l-235.1875 113.371094c-6.222656 3-8.0625 9.074218-6.726563 14.347656.074219.300781.160157.597656.253907.894531.433593 1.316406 1.0625 2.5625 1.878906 3.683594 2.46875 3.394531 6.609375 5.597656 11.878906 4.820312zm0 0" fill="#ffc666"/><path d="m291.316406 148.34375c25.640625-2.226562 44.625-24.816406 42.398438-50.457031-.121094-1.390625-.3125-2.753907-.550782-4.101563-4.144531-23.53125-25.65625-40.402344-49.90625-38.296875-25.640624 2.226563-44.625 24.816407-42.398437 50.457031.898437 10.332032 5.105469 19.582032 11.480469 26.800782 9.449218 10.691406 23.667968 16.925781 38.976562 15.597656zm0 0" fill="#ff6dca"/><path d="m510.734375 175.207031c7.835937-48.800781-20.941406-88.632812-81.09375-112.195312-19.511719-7.648438-41.550781-6.804688-60.464844 2.3125l-29.820312 14.375c-3.761719-8.824219-9.738281-16.609375-17.488281-22.589844-7.738282-5.976563-16.78125-9.789063-26.28125-11.1875 2.242187-10.1875 7.488281-20.644531 18.914062-26.53125 4.910156-2.527344 6.84375-8.558594 4.3125-13.46875-2.527344-4.910156-8.5625-6.839844-13.46875-4.3125-20.257812 10.4375-27.8125 28.90625-30.246094 45.050781-27.320312 6.003906-46.679687 31.539063-44.203125 60.152344.679688 7.816406 2.921875 15.257812 6.574219 21.996094l-224.65625 108.300781c-9.164062 4.417969-13.996094 13.605469-12.566406 23.367187 0 1.554688.355468 3.113282 1.078125 4.539063l.167969.324219c.628906 1.691406 1.441406 3.292968 2.429687 4.78125l29.226563 57.394531v.003906l5.226562 10.265625 12.28125 24.117188c1.042969 2.050781 2.285156 3.953125 3.679688 5.710937 6.480468 8.164063 16.425781 13.03125 26.929687 13.03125 1.371094 0 2.753906-.082031 4.140625-.253906l97.289062-11.910156 294.164063-36.019531c2.53125-.3125 4.949219-.976563 7.214844-1.929688 6.671875-2.796875 11.976562-8.160156 14.734375-14.824219 1.082031-2.617187 1.792968-5.421875 2.015625-8.363281zm-114.441406 49.964844 84.777343-12.492187c.707032-.105469 1.398438-.238282 2.089844-.386719.207032-.042969.410156-.09375.613282-.144531.496093-.117188.984374-.242188 1.46875-.382813.21875-.0625.433593-.125.648437-.191406.523437-.160157 1.039063-.335938 1.546875-.523438.148438-.054687.296875-.101562.445312-.15625.039063-.019531.082032-.03125.121094-.046875l-3.039062 40.523438-81.558594 11.328125v-.183594c.003906-12.808594-2.433594-25.496094-7.113281-37.34375zm-121.953125-157.480469c.394531 5.695313 1.136718 9.492188 1.25 10.058594.96875 4.738281 5.136718 8 9.789062 8 .664063 0 1.335938-.0625 2.011719-.203125 5.410156-1.105469 8.902344-6.386719 7.796875-11.796875-.023438-.109375-.609375-3.121094-.917969-7.730469 14.472657 2.875 26.40625 14.441407 29.066407 29.585938.1875 1.011719.324218 2.039062.417968 3.140625.21875 2.515625.175782 4.992187-.105468 7.40625-1.851563 15.898437-14.027344 29.042968-30.105469 31.820312-1.015625.175782-2.039063.320313-3.085938.410156 0 0 0 0-.003906 0-.730469.0625-1.457031.105469-2.183594.125-10.253906.292969-19.957031-3.640624-27.148437-11.003906-.4375-.449218-.867188-.90625-1.289063-1.378906v-.003906c-5.210937-5.894532-8.324219-13.171875-9.011719-21.039063-1.445312-16.675781 8.585938-31.738281 23.519532-37.390625zm-252.839844 187.429688 228.855469-110.320313c.179687.152344.367187.296875.550781.449219.335938.28125.679688.5625 1.027344.835938.417968.335937.84375.664062 1.269531.984374.351563.261719.703125.523438 1.058594.777344.4375.3125.882812.621094 1.328125.921875.359375.242188.71875.480469 1.082031.714844.457031.292969.921875.578125 1.386719.855469.367187.222656.730468.441406 1.101562.652344.476563.273437.960938.535156 1.445313.792968.371093.199219.738281.398438 1.109375.585938.507812.253906 1.015625.496094 1.527344.734375.367187.171875.726562.347656 1.09375.511719.542968.238281 1.089843.460937 1.640624.683593.34375.140625.6875.289063 1.039063.425781.613281.234376 1.230469.449219 1.851563.664063.292968.101563.582031.210937.875.308594.847656.277343 1.703124.53125 2.566406.769531.070312.019531.140625.042969.210937.0625.945313.257812 1.894531.488281 2.851563.695312.199218.042969.40625.074219.605468.117188.75.152344 1.5.300781 2.253907.425781.316406.050781.636719.085938.957031.132813.644531.097656 1.285156.191406 1.929688.261718.367187.042969.734374.066407 1.101562.101563.601562.054687 1.207031.109375 1.8125.144531.390625.023438.785156.03125 1.179688.046875.582031.023438 1.164062.042969 1.746093.046875.132813.003906.261719.011719.390625.011719.414063 0 .835938-.019531 1.253906-.027344.3125-.007812.625-.007812.941407-.019531.851562-.035156 1.707031-.085938 2.558593-.15625.027344-.003906.054688-.003906.082032-.007812.957031-.082032 1.90625-.1875 2.847656-.320313.316406-.042969.628906-.101563.941406-.148437.621094-.097657 1.246094-.191407 1.859375-.308594.371094-.066406.730469-.15625 1.097657-.230469.554687-.117187 1.105468-.226563 1.652343-.359375.386719-.09375.769531-.203125 1.15625-.304688.511719-.136718 1.027344-.265624 1.535157-.414062.398437-.117188.785156-.25 1.175781-.375.488281-.15625.980469-.304688 1.460937-.472656.394532-.136719.78125-.289063 1.171875-.4375.46875-.175782.941407-.34375 1.40625-.535156.386719-.15625.769531-.328126 1.15625-.496094.453125-.191406.90625-.386719 1.351563-.589844.386718-.179688.761718-.371094 1.140625-.554688.4375-.214843.875-.425781 1.304687-.652343.375-.195313.746094-.402344 1.117188-.609375.417968-.230469.839844-.460938 1.253906-.703125.367188-.214844.726562-.441407 1.089844-.664063.40625-.25.8125-.5 1.210937-.761718.355469-.230469.707031-.472657 1.054688-.710938.390625-.269531.785156-.539062 1.167969-.816406.34375-.246094.683593-.503906 1.023437-.761719.375-.285156.75-.570313 1.121094-.863281.332031-.265625.65625-.539063.984375-.808594.363281-.304688.722656-.605469 1.074218-.914062.320313-.28125.632813-.566407.949219-.855469.34375-.316407.6875-.636719 1.027344-.960938.304687-.296875.605469-.597656.90625-.898437.328125-.332032.65625-.667969.976563-1.007813.292968-.308593.578124-.625.863281-.941406.316406-.347656.625-.695313.929687-1.050781.277344-.324219.550782-.648438.820313-.980469.296875-.359375.589843-.722656.875-1.09375.265625-.335937.523437-.671875.777343-1.015625.28125-.375.554688-.753906.824219-1.136719.246094-.347656.488281-.695312.726563-1.046875.261718-.390625.515625-.78125.769531-1.179687.230469-.355469.457031-.71875.679687-1.082031.242188-.398438.480469-.804688.714844-1.214844.210938-.367188.421875-.738282.625-1.113282.226563-.414062.441406-.832031.65625-1.25.195313-.378906.390625-.757812.578125-1.144531.203125-.421875.398438-.851562.597657-1.28125.175781-.390625.351562-.777343.519531-1.171875.1875-.433594.363281-.875.539062-1.316406.15625-.398438.316407-.792969.464844-1.195312.167969-.445313.320313-.898438.476563-1.351563.136718-.402344.28125-.808594.410156-1.214844.144531-.457031.277344-.917969.410156-1.378906.121094-.414063.242188-.824219.351562-1.238281.125-.464844.234376-.9375.347657-1.410156.097656-.417969.199219-.832032.289062-1.25.101563-.480469.191407-.960938.28125-1.441407.078125-.421875.160157-.839843.230469-1.265625.078125-.488281.140625-.980468.207031-1.472656.058594-.425781.125-.84375.171875-1.269531.054688-.503907.09375-1.007813.136719-1.511719.035156-.421875.078125-.84375.105469-1.269531.03125-.515625.042968-1.03125.0625-1.550781.015625-.421876.039062-.839844.042968-1.261719.007813-.535157-.007812-1.066407-.015624-1.601563-.003907-.414062 0-.824218-.015626-1.238281-.003906-.03125 0-.0625-.003906-.09375l34.011719-16.394531c13.921875-6.707032 30.132813-7.332032 44.480469-1.707032 35.835937 14.035157 76.820312 41.191407 68.582031 90.84375-.003906.027344-.007813.050782-.011719.078126-.089844.539062-.199218 1.085937-.296875 1.628906-.078125.414062-.148437.828125-.230469 1.246094-.121093.609374-.265624 1.230468-.402343 1.84375-.078125.355468-.144531.703124-.230469 1.058593-.171875.734375-.363281 1.476563-.554688 2.21875-.0625.242188-.113281.480469-.179687.71875-.261719.988281-.542969 1.980469-.839844 2.972657-1.277343 4.273437-4.808593 7.523437-9.140625 8.484374-.289062.066407-.582031.121094-.875.164063l-98.179687 14.46875c-3.269531.480469-6.085938 2.546875-7.53125 5.511719-1.449219 2.96875-1.335938 6.460937.296875 9.328125 6.976562 12.253906 10.660156 26.191406 10.660156 40.316406v19.679687c0 3.566407-1.410156 6.890626-3.976562 9.367188-2.558594 2.464844-5.921876 3.753906-9.511719 3.628906-6.898438-.246094-12.511719-6.320312-12.511719-13.546875v-1.691406c0-2.722656-.179688-5.4375-.53125-8.125-1.058594-8.066406-3.6875-15.902344-7.753906-23.019531-4.070313-7.09375-9.492188-13.320313-15.914063-18.320313-2.140625-1.667969-4.390625-3.199219-6.738281-4.578125-.820312-.480468-1.660156-.925781-2.503906-1.359375-.191406-.09375-.378906-.191406-.570313-.285156-.835937-.410156-1.675781-.800781-2.53125-1.160156-.125-.050781-.253906-.101563-.378906-.152344-.773437-.316406-1.554687-.613281-2.34375-.890625-.183594-.0625-.367187-.132812-.554687-.195312-.867188-.292969-1.738282-.558594-2.621094-.800782-.191406-.054687-.382813-.101562-.574219-.152344-.800781-.207031-1.601563-.398437-2.410156-.566406-.140625-.027344-.28125-.0625-.425781-.089844-.898438-.179687-1.804688-.328124-2.714844-.453124-.214844-.03125-.433594-.058594-.652344-.085938-.917969-.113281-1.832031-.210938-2.753906-.273438-.023438 0-.046875-.003906-.066406-.003906-.929688-.0625-1.863282-.085937-2.792969-.09375-.117188-.003906-.238281-.011718-.355469-.011718-.171875 0-.339844.003906-.511719.007812-.238281 0-.480469.007812-.71875.011719-.402343.011719-.808593.027343-1.210937.050781-.234375.011719-.46875.019531-.707032.039062-.429687.027344-.855468.0625-1.285156.105469-.203125.019531-.410156.03125-.613281.054688-.628906.066406-1.257813.144531-1.882813.238281l-272.308593 40.128906c-.21875.03125-.410157.042969-.589844.042969-.050781 0-.101563 0-.152344 0-.167969-.007813-.320312-.019531-.457031-.050781-.023438-.003906-.039062-.011719-.058594-.019532-.121094-.03125-.230468-.070312-.332031-.121093-.03125-.015625-.066406-.027344-.09375-.046875-.105469-.058594-.207031-.125-.296875-.203125-.003906-.007813-.011719-.011719-.015625-.015625l-.421875-.835938-.515625-1.015625c-.296875-1.742187.917969-2.328125 1.453125-2.585937zm276.710938-15.492188c6.238281-.921875 12.683593.332032 18.128906 3.527344 6.398437 3.757812 11.734375 9.15625 15.425781 15.589844 2.355469 4.121094 3.992187 8.601562 4.875 13.226562l-134.210937 18.640625c-5.472657.761719-9.289063 5.8125-8.53125 11.28125.695312 5.003907 4.980468 8.625 9.894531 8.625.457031 0 .921875-.03125 1.386719-.097656l133.769531-18.578125c4.089843 13.203125 15.925781 22.828125 30.261719 23.335938.410156.015624.816406.019531 1.226562.019531.078125 0 .15625-.003907.234375-.003907.257813-.003906.511719-.011718.765625-.019531.292969-.007812.585938-.015625.875-.035156.253906-.011719.507812-.03125.761719-.050781.289062-.023438.582031-.046875.871093-.078125.246094-.027344.496094-.058594.742188-.089844.292969-.035156.582031-.074219.871094-.121094.246094-.039062.484375-.078125.726562-.121093.292969-.054688.582032-.109376.871094-.167969.238281-.046875.472656-.101563.707031-.15625.292969-.066407.582031-.136719.871094-.210938.230469-.058593.457031-.121093.6875-.183593.289063-.082032.578125-.167969.867187-.257813.222657-.070313.445313-.140625.667969-.214844.289063-.097656.574219-.199219.859375-.304687.214844-.082032.433594-.160156.648438-.242188.285156-.113281.570312-.230468.851562-.351562.210938-.089844.421875-.175782.628906-.269532.28125-.128906.5625-.265624.84375-.398437.203126-.097656.40625-.195313.605469-.300781.28125-.140625.554688-.292969.832031-.445313.195313-.105469.390626-.210937.585938-.324219.277344-.15625.546875-.328124.820312-.492187.1875-.117187.375-.226563.5625-.347656.273438-.175781.542969-.359375.8125-.542969.175782-.125.355469-.242188.53125-.367188.273438-.195312.539063-.398437.808594-.605468.164063-.125.332032-.246094.496094-.375.289062-.230469.574219-.472656.855469-.710938.136719-.113281.273437-.222656.40625-.335937.410156-.363281.816406-.734375 1.214843-1.117188 6.335938-6.113281 9.894532-14.28125 10.074219-23.0625l80.039063-11.113281-2.558594 34.070312c-.0625.871094-.28125 1.703126-.628906 2.464844-.691406 1.527344-1.886719 2.785156-3.382813 3.546875-.746093.378907-1.566406.636719-2.4375.742188l-270.5 33.125-120.953125 14.808593c-4.980468.613282-9.871094-1.46875-12.925781-5.296874-.59375-.742188-1.128906-1.542969-1.570313-2.414063l-11.136718-21.871094 67.71875-9.402343c5.46875-.761719 9.289062-5.8125 8.53125-11.28125-.761719-5.46875-5.8125-9.289063-11.28125-8.527344l-74.570313 10.355468-16.839843-33.078124zm0 0"/><path d="m191.75 219.371094c2.667969 0 5.332031-1.0625 7.300781-3.164063l15.335938-16.375c3.773437-4.03125 3.566406-10.359375-.464844-14.136719-4.03125-3.773437-10.355469-3.566406-14.132813.464844l-15.335937 16.375c-3.777344 4.03125-3.566406 10.359375.460937 14.132813 1.929688 1.808593 4.386719 2.703125 6.835938 2.703125zm0 0"/><path d="m301.589844 208.183594c2.667968 0 5.332031-1.0625 7.300781-3.164063l15.335937-16.375c3.773438-4.03125 3.566407-10.359375-.464843-14.136719-4.03125-3.773437-10.359375-3.566406-14.132813.464844l-15.335937 16.375c-3.777344 4.03125-3.566407 10.359375.460937 14.132813 1.929688 1.808593 4.386719 2.703125 6.835938 2.703125zm0 0"/><path d="m432.933594 180.097656c2.671875 0 5.332031-1.0625 7.304687-3.164062l15.332031-16.375c3.777344-4.03125 3.566407-10.359375-.460937-14.136719-4.03125-3.773437-10.359375-3.566406-14.136719.464844l-15.335937 16.375c-3.773438 4.03125-3.566407 10.359375.464843 14.132812 1.929688 1.808594 4.382813 2.703125 6.832032 2.703125zm0 0"/><path d="m377.808594 146.335938c2.671875 0 5.332031-1.0625 7.300781-3.164063l15.335937-16.375c3.777344-4.03125 3.566407-10.359375-.460937-14.136719-4.03125-3.773437-10.359375-3.566406-14.136719.464844l-15.335937 16.375c-3.773438 4.03125-3.566407 10.359375.464843 14.132812 1.929688 1.808594 4.382813 2.703126 6.832032 2.703126zm0 0"/><path d="m163.652344 316.09375h.023437c5.523438 0 9.988281-4.476562 9.988281-10 0-5.519531-4.488281-10-10.011718-10-5.523438 0-10 4.480469-10 10 0 5.523438 4.476562 10 10 10zm0 0"/></svg>