<svg id="Capa_1" enable-background="new 0 0 512 512" height="512" viewBox="0 0 512 512" width="512" xmlns="http://www.w3.org/2000/svg"><g><g><path d="m310.243 405-6.493 5h-20.75l-8.259-5v-397.5h35.502z" fill="#3c87d0"/><path d="m274.741 248.512h35.501v24.488h-35.501z" fill="#406cbc"/><path d="m407.204 130.8h-228.849v-84.525h228.849l29.325 42.262z" fill="#eaf6ff"/><path d="m225.779 80.333v-34.058h-47.424v84.525h47.424 181.425l14.201-20.466h-165.626c-16.568-.001-30-13.432-30-30.001z" fill="#d8ecfe"/><path d="m436.529 88.54-15.12 21.79-14.21 20.47h-56.71v-84.52h56.71z" fill="#f07281"/><path d="m421.409 110.33-14.21 20.47h-56.71v-20.47z" fill="#eb5569"/><path d="m177.78 248.512h228.849v-84.524h-228.849l-29.324 42.262z" fill="#eaf6ff"/><path d="m163.2 227.5 14.58 21.012h228.849v-21.012z" fill="#d8ecfe"/><path d="m234.825 163.988h-57.045l-29.324 42.262 29.324 42.262h57.045z" fill="#8ac9fe"/><path d="m209.25 214.602c-3.774-5.438-5.796-11.9-5.796-18.519v-32.096h-25.674l-29.325 42.262s14.745 21.25 14.745 21.25l14.58 21.012h54.999 2.046v-21.011h-.928c-9.833 0-19.041-4.819-24.647-12.898z" fill="#60b7ff"/><path d="m235.184 421.759c-4.528 0-8.882.738-12.96 2.082-1.796-20.755-19.202-37.044-40.422-37.044-21.046 0-38.348 16.02-40.383 36.53-4.453-2.866-9.741-4.548-15.43-4.548-15.781 0-28.574 12.793-28.574 28.574-15.781 0-28.574 12.793-28.574 28.574s12.793 28.574 28.574 28.574h137.769c22.848 0 41.37-18.522 41.37-41.37s-18.522-41.372-41.37-41.372z" fill="#b0ef9a"/><path d="m117.323 475.926c0-15.781 12.793-28.574 28.574-28.574 0-15.781 12.793-28.574 28.574-28.574 5.689 0 10.977 1.682 15.43 4.548 1.156-11.65 7.242-21.847 16.138-28.486-6.763-5.048-15.147-8.043-24.236-8.043-21.046 0-38.348 16.019-40.383 36.529-4.453-2.866-9.741-4.548-15.43-4.548-15.781 0-28.574 12.793-28.574 28.574-15.781 0-28.574 12.793-28.574 28.574s12.792 28.574 28.573 28.574h48.482c-15.781 0-28.574-12.793-28.574-28.574z" fill="#9be27d"/><path d="m322.034 475.5-6.534 5h-44.25l-8.3-5v-70.5h59.084z" fill="#eaf6ff"/><path d="m141.825 475.5h301.333v29h-301.333z" fill="#8ac9fe"/><path d="m262.95 405h30v70.5h-30z" fill="#d8ecfe"/></g><path d="m97.42 512h44.405.005 301.33c4.143 0 7.5-3.358 7.5-7.5v-29c0-4.142-3.357-7.5-7.5-7.5h-113.625v-63c0-4.142-3.357-7.5-7.5-7.5h-4.294v-141.488h88.889c4.143 0 7.5-3.358 7.5-7.5v-27.593c0-4.142-3.357-7.5-7.5-7.5s-7.5 3.358-7.5 7.5v20.093h-88.84c-.016 0-.032-.002-.048-.002s-.032.002-.048.002h-35.403c-.016 0-.032-.002-.048-.002s-.032.002-.048.002h-32.367v-69.524h32.367c.016 0 .032.002.048.002s.032-.002.048-.002h35.403c.016 0 .032.002.048.002s.032-.002.048-.002h88.84v16.745c0 4.142 3.357 7.5 7.5 7.5s7.5-3.358 7.5-7.5v-24.245c0-4.142-3.357-7.5-7.5-7.5h-88.889v-18.188h89.464c2.458 0 4.761-1.205 6.162-3.225l29.324-42.262c1.784-2.571 1.784-5.98 0-8.551l-29.324-42.262c-1.401-2.02-3.704-3.225-6.162-3.225h-89.464v-31.275c0-4.142-3.357-7.5-7.5-7.5h-35.5c-4.143 0-7.5 3.358-7.5 7.5v31.275h-19.638c-4.142 0-7.5 3.358-7.5 7.5s3.358 7.5 7.5 7.5h27.051c.029 0 .058.004.087.004s.058-.004.087-.004h35.326c.029 0 .058.004.087.004s.058-.004.087-.004h32.665v69.525h-157.137v-69.525h29.061c4.142 0 7.5-3.358 7.5-7.5s-3.358-7.5-7.5-7.5h-36.561c-4.142 0-7.5 3.358-7.5 7.5v84.525c0 4.142 3.358 7.5 7.5 7.5h88.885v18.188h-89.46c-2.458 0-4.76 1.205-6.162 3.225l-29.325 42.262c-1.784 2.571-1.784 5.98 0 8.551l29.325 42.262c1.402 2.02 3.704 3.225 6.162 3.225h89.46v76.798c0 4.142 3.357 7.5 7.5 7.5s7.5-3.358 7.5-7.5v-76.798h20.5v141.487h-20.5v-32c0-4.142-3.357-7.5-7.5-7.5s-7.5 3.358-7.5 7.5v32h-4.29c-4.143 0-7.5 3.358-7.5 7.5v13.661c-6.301-2.874-13.195-4.401-20.27-4.401-2.345 0-4.681.168-6.995.503-5.611-20.446-24.559-35.463-46.386-35.463-21.384 0-39.606 13.802-45.815 33.396-3.229-.936-6.59-1.416-9.995-1.416-17.549 0-32.21 12.596-35.418 29.222-16.63 3.208-29.232 17.874-29.232 35.428 0 19.889 16.186 36.07 36.08 36.07zm184.821-497h20.5v23.775h-20.5zm75.752 38.775h45.287l24.12 34.762-24.12 34.763h-45.287zm-75.752 84.525h20.5v18.188h-20.5zm-124.657 67.95 24.121-34.762h45.62v69.524h-45.62zm278.076 290.75h-286.334v-14h113.625 59.084 113.625zm-125.419-84.5h4.294v55.5h-44.084v-55.5h4.29zm-212.821 42.35c4.142 0 7.5-3.358 7.5-7.5 0-11.618 9.452-21.07 21.07-21.07 4.034 0 7.964 1.159 11.364 3.353 2.197 1.417 4.973 1.589 7.325.452 2.354-1.136 3.946-3.415 4.204-6.016 1.68-16.971 15.831-29.769 32.917-29.769 17.016 0 31.488 13.259 32.948 30.185.197 2.283 1.427 4.351 3.339 5.614 1.912 1.262 4.296 1.582 6.474.867 3.446-1.132 7.019-1.706 10.62-1.706 7.366 0 14.452 2.372 20.27 6.734v32.006h-113.625c-4.142 0-7.5 3.358-7.5 7.5v21.5h-36.906c-11.624 0-21.08-9.452-21.08-21.07 0-11.623 9.457-21.08 21.08-21.08z"/></g></svg>