<svg id="Layer_1" enable-background="new 0 0 512 512" height="512" viewBox="0 0 512 512" width="512" xmlns="http://www.w3.org/2000/svg"><g><path d="m429.382 440.098c44.254-44.326 71.62-105.516 71.62-173.1 0-135.311-109.691-245.003-245.002-245.003s-245.002 109.692-245.002 245.003c0 47.105 13.305 91.097 36.346 128.446z" fill="#49d88b"/><path d="m428.321 263.749v147.029h3.218c18.585 0 33.791-15.206 33.791-33.791v-121.613z" fill="#e9efff"/><path d="m465.33 255.969v-172.73h-383.589v36.973h314.726c17.564 0 31.853 14.289 31.853 31.853v113.094c12.563.524 24.649-2.878 37.01-9.19z" fill="#73c3f9"/><path d="m163.51 85.177 1.255-1.938h-83.024v36.973h81.769c-22.778-18.875 0-35.035 0-35.035z" fill="#4fabf7"/><path d="m430.258 439.2v-51.264c-21.172-.205-43.597-11.492-70.919-38.814-57.275-57.275-104.511 54.457-199.959-61.803-45.126-54.965-94.18-44.345-112.71-37.508v144.554c43.011 70.538 120.669 117.635 209.33 117.635 68.178 0 129.843-27.858 174.258-72.8z" fill="#e9efff"/><path d="m111.851 465.121v-46.473c0-13.741 8.432-20.436 11.411-22.372.645-.419 1.027-1.134 1.027-1.903v-84.203c0-1.017-.683-1.895-1.658-2.187-11.752-3.516-10.759-16.979-10.759-16.979s0-20.842 0-40.326c-28.309-11.322-53.18-5.302-65.201-.866v144.554c16.87 27.668 39.074 51.727 65.18 70.755z" fill="#d3dcfb"/><path d="m46.67 252.717c18.529-6.837 67.584-17.457 112.71 37.508 95.448 116.26 142.684 4.528 199.959 61.803 27.322 27.322 49.747 38.609 70.919 38.814v-189.328h-383.588z" fill="#9bd8f9"/><path d="m46.67 201.514v51.204c12.021-4.435 36.892-10.456 65.201.866 0-10.366 0-20.66 0-27.58 0-16.764 11-21.412 13.923-22.351.473-.152.881-.447 1.169-.852l.914-1.287z" fill="#73c3f9"/><path d="m155.525 395.664h-75.871c-5.669 0-10.306-4.638-10.306-10.306v-66.658c0-5.668 4.638-10.306 10.306-10.306h75.871c5.669 0 10.306 4.638 10.306 10.306v66.658c0 5.668-4.638 10.306-10.306 10.306z" fill="#ff4155"/><path d="m69.348 318.7v66.658c0 5.668 4.638 10.306 10.306 10.306h59.16c-2.93-2.645-2.783-6.323-2.221-8.786.329-1.44-.554-2.883-1.979-3.275-14.858-4.091-13.042-17.224-12.23-20.857.143-.639.053-1.301-.248-1.882l-12.38-23.897c-.342-.66-.937-1.161-1.648-1.378-9.553-2.913-8.699-11.754-7.81-15.64.246-1.077-.168-2.171-1.023-2.871-2.579-2.112-2.262-4.825-1.601-6.652.248-.684.193-1.405-.087-2.032h-17.933c-5.668-.001-10.306 4.637-10.306 10.306z" fill="#e80054"/><g><path d="m124.115 433.18h-35.848c-4.013 0-7.266-3.253-7.266-7.266s3.253-7.266 7.266-7.266h35.848c4.013 0 7.266 3.253 7.266 7.266s-3.253 7.266-7.266 7.266z" fill="#bec8f7"/></g><path d="m151.894 445.711h-63.466c5.429 5.093 11.085 9.946 16.961 14.533h46.505c4.013 0 7.266-3.253 7.266-7.266 0-4.015-3.253-7.267-7.266-7.267z" fill="#d3dcfb"/><path d="m151.894 472.775h-28.901c8.244 5.34 16.829 10.197 25.716 14.533h3.186c4.013 0 7.266-3.253 7.266-7.266-.001-4.015-3.254-7.267-7.267-7.267z" fill="#d3dcfb"/><g><path d="m242.499 433.18h-35.848c-4.013 0-7.266-3.253-7.266-7.266s3.253-7.266 7.266-7.266h35.848c4.013 0 7.266 3.253 7.266 7.266s-3.253 7.266-7.266 7.266z" fill="#bec8f7"/></g><g><path d="m270.278 460.243h-63.627c-4.013 0-7.266-3.253-7.266-7.266 0-4.014 3.253-7.266 7.266-7.266h63.627c4.013 0 7.266 3.253 7.266 7.266s-3.253 7.266-7.266 7.266z" fill="#d3dcfb"/></g><g><path d="m270.278 487.307h-63.627c-4.013 0-7.266-3.253-7.266-7.266 0-4.014 3.253-7.266 7.266-7.266h63.627c4.013 0 7.266 3.253 7.266 7.266s-3.253 7.266-7.266 7.266z" fill="#d3dcfb"/></g><g><path d="m363.373 433.18h-35.848c-4.013 0-7.266-3.253-7.266-7.266s3.253-7.266 7.266-7.266h35.848c4.013 0 7.266 3.253 7.266 7.266.001 4.013-3.253 7.266-7.266 7.266z" fill="#bec8f7"/></g><g><path d="m391.152 460.243h-63.627c-4.013 0-7.266-3.253-7.266-7.266 0-4.014 3.253-7.266 7.266-7.266h63.627c4.013 0 7.266 3.253 7.266 7.266s-3.253 7.266-7.266 7.266z" fill="#d3dcfb"/></g><path d="m327.525 472.775c-4.013 0-7.266 3.253-7.266 7.266s3.253 7.266 7.266 7.266h35.766c8.887-4.336 17.471-9.193 25.716-14.533h-61.482z" fill="#d3dcfb"/><path d="m294.784 241.972h-97.893v28.186h97.893c7.784 0 14.093-6.31 14.093-14.093 0-7.784-6.309-14.093-14.093-14.093z" fill="#e9efff"/><path d="m233.891 256.065c0-7.784 6.309-14.093 14.093-14.093h-51.093v28.186h51.093c-7.784 0-14.093-6.309-14.093-14.093z" fill="#d3dcfb"/><path d="m197.963 241.972h-15.819c-7.783 0-14.093 6.309-14.093 14.093s6.31 14.093 14.093 14.093h15.819z" fill="#3c58a0"/><path d="m431.539 0h-316.007c-18.585 0-33.791 15.206-33.791 33.791v22.246h383.589v-22.246c0-18.585-15.206-33.791-33.791-33.791z" fill="#2a428c"/><path d="m115.532 0c-18.585 0-33.791 15.206-33.791 33.791v22.246h100.649l1.167-1.801c-7.93-7.929 0-15.324 0-15.324v-21.786c-7.346-7.345 0-17.126 0-17.126z" fill="#1c2e7a"/><circle cx="123.325" cy="28.019" fill="#ff4155" r="10.893"/><circle cx="153.441" cy="28.019" fill="#ffdd40" r="10.893"/><path d="m194.451 28.019c0 6.016-4.877 10.893-10.893 10.893s-10.893-4.877-10.893-10.893 4.877-10.893 10.893-10.893 10.893 4.877 10.893 10.893z" fill="#38c674"/><g><path d="m339.518 35.285h-109.296c-4.013 0-7.266-3.253-7.266-7.266s3.253-7.266 7.266-7.266h109.297c4.013 0 7.266 3.253 7.266 7.266s-3.254 7.266-7.267 7.266z" fill="#3c58a0"/></g><g><path d="m428.304 35.285h-9.471c-4.013 0-7.266-3.253-7.266-7.266s3.253-7.266 7.266-7.266h9.471c4.013 0 7.266 3.253 7.266 7.266s-3.253 7.266-7.266 7.266z" fill="#3c58a0"/></g><g><path d="m395.376 35.285h-9.471c-4.013 0-7.266-3.253-7.266-7.266s3.253-7.266 7.266-7.266h9.471c4.013 0 7.266 3.253 7.266 7.266s-3.253 7.266-7.266 7.266z" fill="#3c58a0"/></g><path d="m192.513 54.236c0 17.088-13.853 30.941-30.941 30.941h303.758v-30.941z" fill="#e9efff"/><path d="m81.741 54.236v30.941h81.769c17.088 0 30.941-13.853 30.941-30.941z" fill="#1e9ef4"/><path d="m396.467 118.274h-316.006c-18.585 0-33.791 15.206-33.791 33.791v22.247h383.588v-22.247c0-18.585-15.206-33.791-33.791-33.791z" fill="#2a428c"/><path d="m147.451 173.967c.563-.793.581-1.872-.007-2.647-4.171-5.491-.606-11.722.647-13.583.256-.38.395-.824.395-1.282v-20.017c0-.62-.23-1.228-.675-1.66-5.533-5.374-3.413-10.895-1.369-13.994.532-.806.46-1.79-.034-2.511h-65.947c-18.585 0-33.791 15.206-33.791 33.791v22.247h100.536z" fill="#1c2e7a"/><path d="m99.146 146.293c0 6.016-4.877 10.893-10.893 10.893s-10.893-4.877-10.893-10.893 4.877-10.893 10.893-10.893 10.893 4.877 10.893 10.893z" fill="#ff4155"/><path d="m129.263 146.293c0 6.016-4.877 10.893-10.893 10.893s-10.893-4.877-10.893-10.893 4.877-10.893 10.893-10.893 10.893 4.877 10.893 10.893z" fill="#ffdd40"/><path d="m159.38 146.293c0 6.016-4.877 10.893-10.893 10.893s-10.893-4.877-10.893-10.893 4.877-10.893 10.893-10.893 10.893 4.877 10.893 10.893z" fill="#38c674"/><g><path d="m304.447 153.56h-109.297c-4.013 0-7.266-3.253-7.266-7.266s3.253-7.266 7.266-7.266h109.297c4.013 0 7.266 3.253 7.266 7.266.001 4.013-3.253 7.266-7.266 7.266z" fill="#3c58a0"/></g><g><path d="m393.233 153.56h-9.472c-4.013 0-7.266-3.253-7.266-7.266s3.253-7.266 7.266-7.266h9.472c4.013 0 7.266 3.253 7.266 7.266s-3.253 7.266-7.266 7.266z" fill="#3c58a0"/></g><g><path d="m360.305 153.56h-9.471c-4.013 0-7.266-3.253-7.266-7.266s3.253-7.266 7.266-7.266h9.471c4.013 0 7.266 3.253 7.266 7.266s-3.253 7.266-7.266 7.266z" fill="#3c58a0"/></g><path d="m157.442 172.51c0 17.088-13.853 30.941-30.941 30.941h303.757v-30.941z" fill="#e9efff"/><path d="m46.67 172.51v30.941h81.768c17.088 0 30.941-13.853 30.941-30.941z" fill="#4fabf7"/><ellipse cx="117.59" cy="352.029" fill="#e9efff" rx="37.853" ry="37.853" transform="matrix(.139 -.99 .99 .139 -247.346 419.656)"/><path d="m134.615 383.603c-14.858-4.091-13.042-17.224-12.23-20.857.143-.639.053-1.301-.248-1.882l-12.38-23.897c-.342-.66-.937-1.161-1.648-1.378-9.553-2.913-8.699-11.754-7.81-15.64.12-.527.081-1.057-.089-1.544-12.159 6.298-20.474 18.986-20.474 33.625 0 20.906 16.948 37.853 37.853 37.853 6.809 0 13.192-1.807 18.712-4.953-.353-.629-.943-1.123-1.686-1.327z" fill="#d3dcfb"/><path d="m131.817 348.128-18.486-11.819c-3.081-1.97-7.123.243-7.123 3.9v23.637c0 3.657 4.042 5.87 7.123 3.9l18.486-11.819c2.848-1.819 2.848-5.978 0-7.799z" fill="#ff4155"/><path d="m397.274 395.664h-75.871c-5.668 0-10.306-4.638-10.306-10.306v-66.658c0-5.668 4.638-10.306 10.306-10.306h75.871c5.669 0 10.306 4.638 10.306 10.306v66.658c0 5.668-4.637 10.306-10.306 10.306z" fill="#ffdd40"/><path d="m311.097 318.699v66.658c0 5.668 4.638 10.306 10.306 10.306h59.16c-2.93-2.645-2.783-6.323-2.221-8.786.329-1.44-.554-2.883-1.979-3.275-14.858-4.091-13.042-17.224-12.23-20.858.143-.639.053-1.301-.248-1.882l-12.38-23.897c-.342-.66-.937-1.161-1.648-1.378-9.553-2.913-8.699-11.754-7.81-15.64.246-1.077-.168-2.171-1.023-2.871-2.579-2.112-2.262-4.825-1.601-6.652.248-.684.193-1.405-.087-2.032h-17.935c-5.666.001-10.304 4.639-10.304 10.307z" fill="#ffb332"/><ellipse cx="359.339" cy="352.029" fill="#e9efff" rx="37.853" ry="37.853" transform="matrix(.123 -.992 .992 .123 -34.313 665.216)"/><path d="m376.364 383.603c-14.858-4.091-13.042-17.224-12.23-20.858.143-.639.053-1.301-.248-1.882l-12.38-23.897c-.342-.66-.937-1.161-1.648-1.378-9.553-2.913-8.699-11.754-7.81-15.64.12-.527.081-1.057-.089-1.544-12.159 6.298-20.474 18.986-20.474 33.625 0 20.906 16.947 37.853 37.853 37.853 6.809 0 13.192-1.807 18.712-4.953-.353-.628-.943-1.122-1.686-1.326z" fill="#d3dcfb"/><path d="m373.566 348.128-18.486-11.818c-3.081-1.97-7.123.243-7.123 3.9v23.637c0 3.657 4.042 5.87 7.123 3.9l18.486-11.819c2.848-1.82 2.848-5.979 0-7.8z" fill="#ffdd40"/><path d="m276.4 395.664h-75.871c-5.669 0-10.306-4.638-10.306-10.306v-66.658c0-5.668 4.638-10.306 10.306-10.306h75.871c5.668 0 10.306 4.638 10.306 10.306v66.658c0 5.668-4.638 10.306-10.306 10.306z" fill="#73c3f9"/><path d="m190.223 318.7v66.658c0 5.668 4.638 10.306 10.306 10.306h59.16c-2.93-2.645-2.783-6.323-2.221-8.786.329-1.44-.554-2.883-1.979-3.275-14.858-4.091-13.042-17.224-12.23-20.857.143-.639.053-1.301-.248-1.882l-12.38-23.897c-.342-.66-.936-1.161-1.648-1.378-9.553-2.913-8.699-11.754-7.81-15.64.246-1.077-.168-2.171-1.023-2.871-2.579-2.112-2.262-4.825-1.601-6.652.248-.684.193-1.405-.087-2.032h-17.935c-5.667-.001-10.304 4.637-10.304 10.306z" fill="#4fabf7"/><ellipse cx="238.464" cy="352.029" fill="#e9efff" rx="37.853" ry="37.853" transform="matrix(.123 -.992 .992 .123 -140.283 545.264)"/><path d="m255.49 383.603c-14.858-4.091-13.042-17.224-12.23-20.857.143-.639.053-1.301-.248-1.882l-12.38-23.897c-.342-.66-.936-1.161-1.648-1.378-9.553-2.913-8.699-11.754-7.81-15.64.12-.527.081-1.057-.089-1.544-12.159 6.298-20.474 18.986-20.474 33.625 0 20.906 16.948 37.853 37.853 37.853 6.809 0 13.192-1.807 18.712-4.953-.353-.629-.943-1.123-1.686-1.327z" fill="#d3dcfb"/><path d="m252.692 348.128-18.486-11.819c-3.081-1.97-7.123.243-7.123 3.9v23.637c0 3.657 4.042 5.87 7.123 3.9l18.486-11.819c2.848-1.819 2.848-5.978 0-7.799z" fill="#73c3f9"/></g></svg>